3.0Hz3min_grf.mot
version=1
nRows=12
nColumns 19
inDegrees=yes
endheader
time	1_ground_force_vx	1_ground_force_vy	1_ground_force_vz	1_ground_force_px	1_ground_force_py	1_ground_force_pz	1_ground_torque_x	1_ground_torque_y	1_ground_torque_z	2_ground_force_vx	2_ground_force_vy	2_ground_force_vz	2_ground_force_px	2_ground_force_py	2_ground_force_pz	2_ground_torque_x	2_ground_torque_y	2_ground_torque_z
            2.502500	          -11.890772	          358.880955	          -34.475425	           -0.256119	            0.006231	           -0.408254	            0.039862	           -1.203083	            0.115573	            9.757879	          310.438019	           22.220825	           -0.238416	            0.005655	           -0.706595	           -0.048091	           -1.529968	           -0.109513
            2.503000	          -11.296645	          363.930082	          -34.822109	           -0.255908	            0.006232	           -0.408320	            0.027909	           -0.899105	            0.086030	            8.937087	          317.246584	           22.808612	           -0.238010	            0.005656	           -0.706514	           -0.039856	           -1.414791	           -0.101717
            2.503500	          -10.015608	          369.881684	          -35.395917	           -0.256183	            0.006232	           -0.408426	            0.021410	           -0.790673	            0.075664	            7.875714	          325.714538	           22.604635	           -0.237896	            0.005658	           -0.707140	           -0.031269	           -1.293191	           -0.089748
            2.504000	           -8.780932	          374.933097	          -36.248605	           -0.256287	            0.006232	           -0.408509	            0.022624	           -0.966032	            0.093396	            7.108541	          330.680861	           23.467400	           -0.237757	            0.005655	           -0.706132	           -0.026789	           -1.246193	           -0.088438
            2.504500	           -7.774203	          380.522874	          -36.548141	           -0.256501	            0.006232	           -0.408454	            0.025314	           -1.239054	            0.119008	            7.127456	          338.415412	           23.448049	           -0.237570	            0.005659	           -0.706829	           -0.027550	           -1.308096	           -0.090635
            2.505000	           -7.869426	          384.313381	          -37.678075	           -0.256816	            0.006235	           -0.409162	            0.028008	           -1.367787	            0.134098	            7.246300	          344.490966	           23.985881	           -0.237792	            0.005656	           -0.706453	           -0.028718	           -1.365262	           -0.095059
            2.505500	           -8.010710	          391.167775	          -38.657192	           -0.256593	            0.006233	           -0.408545	            0.026341	           -1.286253	            0.127114	            7.455643	          351.486618	           24.808528	           -0.237178	            0.005658	           -0.706374	           -0.030996	           -1.461284	           -0.103140
            2.506000	           -7.830666	          395.678747	          -39.647153	           -0.256885	            0.006233	           -0.408679	            0.018361	           -0.927767	            0.092963	            6.870697	          357.925572	           26.004966	           -0.237200	            0.005658	           -0.706239	           -0.026638	           -1.387690	           -0.100822
            2.506500	           -7.098669	          400.727311	          -39.856614	           -0.256613	            0.006234	           -0.408793	            0.013901	           -0.784711	            0.078048	            5.996552	          366.574326	           26.927841	           -0.237181	            0.005661	           -0.707239	           -0.022897	           -1.399707	           -0.102820
            2.507000	           -5.451079	          405.237644	          -40.620932	           -0.256736	            0.006235	           -0.409073	            0.010330	           -0.767916	            0.076976	            4.900622	          371.724717	           27.462906	           -0.236873	            0.005660	           -0.706653	           -0.017380	           -1.318337	           -0.097398
            2.507500	           -4.444611	          411.008110	          -41.011407	           -0.257043	            0.006234	           -0.409007	            0.010574	           -0.977817	            0.097569	            3.519501	          377.979896	           27.767392	           -0.236910	            0.005659	           -0.706405	           -0.011669	           -1.253227	           -0.092065
            2.508000	           -2.933415	          416.777887	          -41.219703	           -0.257347	            0.006234	           -0.408885	            0.008754	           -1.243743	            0.123007	            2.835832	          385.710570	           28.123764	           -0.236482	            0.005663	           -0.707002	           -0.008995	           -1.223486	           -0.089209
